IKResults
version=1
nRows=11
nColumns=63
inDegrees=yes

Units are S.I. units (second, meters, Newtons, ...)
If the header above contains a line with 'inDegrees', this indicates whether rotational values are in degrees (yes) or radians (no).

endheader
time	pelvis_tilt	pelvis_list	pelvis_rotation	pelvis_tx	pelvis_ty	pelvis_tz	hip_flexion_r	hip_adduction_r	hip_rotation_r	knee_angle_r	knee_angle_r_beta	ankle_angle_r	subtalar_angle_r	mtp_angle_r	hip_flexion_l	hip_adduction_l	hip_rotation_l	knee_angle_l	knee_angle_l_beta	ankle_angle_l	subtalar_angle_l	mtp_angle_l	L5_S1_Flex_Ext	L5_S1_Lat_Bending	L5_S1_axial_rotation	L4_L5_Flex_Ext	L4_L5_Lat_Bending	L4_L5_axial_rotation	L3_L4_Flex_Ext	L3_L4_Lat_Bending	L3_L4_axial_rotation	L2_L3_Flex_Ext	L2_L3_Lat_Bending	L2_L3_axial_rotation	L1_L2_Flex_Ext	L1_L2_Lat_Bending	L1_L2_axial_rotation	L1_T12_Flex_Ext	L1_T12_Lat_Bending	L1_T12_axial_rotation	Abs_r3	Abs_r2	Abs_r1	Abs_t1	Abs_t2	neck_flexion	neck_bending	neck_rotation	arm_flex_r	arm_add_r	arm_rot_r	elbow_flex_r	pro_sup_r	wrist_flex_r	wrist_dev_r	arm_flex_l	arm_add_l	arm_rot_l	elbow_flex_l	pro_sup_l	wrist_flex_l	wrist_dev_l
      6.03333333	     40.32473180	    -11.19259721	      9.55075110	     -0.52043894	      0.37598856	     -0.47233767	     67.16213725	    -23.93619059	     11.81122722	    114.67165427	      2.00139793	     12.81427300	      3.22339589	      0.00000000	     75.66708850	      7.53551590	     34.32059590	    119.92500582	      2.09308621	     15.79912218	      0.48637099	      0.00000000	    -13.42198851	      2.97029978	     -1.27833211	    -24.92597487	      3.95049871	     -1.35822787	    -22.05098493	      7.22198689	     -1.35822787	    -15.33999067	      7.22198689	     -1.11854060	    -12.46365853	      6.05703532	     -1.03864484	     -7.66932424	      4.60099436	     -0.95874908	    -95.87192176	     33.60062519	     -7.10969970	      0.00000000	      0.00000000	     28.33406750	     -2.71798536	     29.64701112	      3.09846177	    -21.26427487	    -22.37318228	     64.69499577	     89.99559364	      0.00000000	      0.00000000	     21.67772794	    -21.06818784	     33.62122258	     40.58902209	     89.99559364	      0.00000000	      0.00000000
      6.06666667	     41.89879226	    -14.39112448	     11.88644782	     -0.51192148	      0.38379408	     -0.47764448	     61.82258900	    -23.83002062	      6.92310085	    114.40673915	      1.99677428	     15.93711684	      3.83259305	      0.00000000	     73.17867414	      8.04349500	     38.59907856	    119.95084326	      2.09353716	     17.68599494	      0.57065591	      0.00000000	    -13.85254580	      3.68643190	     -0.78147665	    -25.72556280	      4.90295443	     -0.83031894	    -22.75834749	      8.96319052	     -0.83031894	    -15.83207459	      8.96319052	     -0.68379207	    -12.86347403	      7.51737193	     -0.63494978	     -7.91534467	      5.71028301	     -0.58610749	    -98.94734936	     41.70165495	     -4.34633870	      0.00000000	      0.00000000	     28.41702369	     -3.53983817	     35.23398518	      2.74291260	    -22.58133713	    -26.12788212	     63.33221432	     89.99559364	      0.00000000	      0.00000000	     24.52736349	    -18.37810187	     38.57674189	     38.34412869	     89.99559364	      0.00000000	      0.00000000
      6.10000000	     43.90829030	    -15.55165325	     12.33987811	     -0.50452408	      0.39385092	     -0.48180849	     57.28429676	    -22.75025540	      5.21409035	    114.03553635	      1.99029557	     18.83493399	      4.93505328	      0.00000000	     69.66486570	      7.07021687	     39.60339829	    119.96158130	      2.09372457	     19.26386052	     -2.09191194	      0.00000000	    -14.38701610	      4.09822180	     -0.39140225	    -26.71812760	      5.45063499	     -0.41586489	    -23.63642875	      9.96441648	     -0.41586489	    -16.44292070	      9.96441648	     -0.34247697	    -13.35978315	      8.35709389	     -0.31801433	     -8.22074100	      6.34814557	     -0.29355169	   -102.76501731	     46.35990462	     -2.17686188	      0.00000000	      0.00000000	     28.46183739	     -3.98310619	     39.76709135	      2.75741711	    -23.64877477	    -29.65668493	     61.65763151	     89.99559364	      0.00000000	      0.00000000	     28.92474438	    -17.28132798	     48.92824385	     37.03101318	     89.99559364	      0.00000000	      0.00000000
      6.13333333	     45.79538846	    -16.46772514	     11.81576047	     -0.49688029	      0.40532275	     -0.48477724	     53.24691634	    -20.85774687	      4.41362728	    113.53272243	      1.98151982	     21.45278278	      5.56705679	      0.00000000	     66.00008918	      5.11032200	     39.76746938	    119.96738680	      2.09382589	     20.89336115	     -5.40815627	      0.00000000	    -14.92827996	      4.40098647	      0.07337962	    -27.72330871	      5.85331200	      0.07796585	    -24.52567114	     10.70055850	      0.07796585	    -17.06153116	     10.70055850	      0.06420717	    -13.86240077	      8.97449161	      0.05962095	     -8.53001917	      6.81712804	      0.05503472	   -106.63121090	     49.78483914	      0.40811546	      0.00000000	      0.00000000	     28.49091150	     -4.53636121	     43.00635798	      2.97620892	    -24.97913342	    -33.04730389	     59.96409046	     89.99559364	      0.00000000	      0.00000000	     33.20792112	    -16.06763538	     58.09832716	     36.49158135	     89.99559364	      0.00000000	      0.00000000
      6.16666667	     47.59178615	    -17.44611596	     10.54040854	     -0.48867191	      0.41805873	     -0.48535048	     49.56410614	    -18.09526452	      4.24931968	    113.02745894	      1.97270130	     24.03264074	      5.84755048	      0.00000000	     62.17993754	      2.21606830	     39.81819830	    119.97069147	      2.09388357	     22.95093936	     -7.68537945	      0.00000000	    -15.45585633	      4.60812808	      0.65047858	    -28.70307080	      6.12881035	      0.69113350	    -25.39242637	     11.20420262	      0.69113350	    -17.66449820	     11.20420262	      0.56916876	    -14.35230819	      9.39689478	      0.52851385	     -8.83147631	      7.13799040	      0.48785894	   -110.39963620	     52.12806647	      3.61776675	      0.00000000	      0.00000000	     28.51580047	     -5.52429167	     44.05354748	      3.17247497	    -26.29520352	    -36.55936324	     58.39808294	     89.99559364	      0.00000000	      0.00000000	     37.64759973	    -14.87717845	     67.22115417	     36.30186823	     89.99559364	      0.00000000	      0.00000000
      6.20000000	     48.87143372	    -18.50613323	      8.87735411	     -0.47925231	      0.43135227	     -0.48345914	     46.53183230	    -14.98512952	      4.45612588	    112.63307433	      1.96581799	     26.45832022	      5.68540114	      0.00000000	     58.72872630	     -1.10352276	     39.83661123	    119.97235088	      2.09391253	     25.16862970	     -8.95558016	      0.00000000	    -15.91715306	      4.73697999	      1.25969119	    -29.55974494	      6.30018338	      1.33842189	    -26.15029076	     11.51749314	      1.33842189	    -18.19171423	     11.51749314	      1.10222979	    -14.78066833	      9.65964959	      1.02349910	     -9.09506126	      7.33758200	      0.94476840	   -113.69463257	     53.58566499	      7.00602452	      0.00000000	      0.00000000	     28.53195966	     -6.36302924	     44.40265312	      3.48529883	    -27.45595791	    -39.91344823	     57.20196397	     89.99559364	      0.00000000	      0.00000000	     41.50061835	    -13.84684465	     74.26898787	     36.34149574	     89.99559364	      0.00000000	      0.00000000
      6.23333333	     49.23135179	    -19.55066862	      6.99939605	     -0.46804348	      0.44459849	     -0.47900960	     44.46439316	    -11.87107128	      4.89110085	    112.44858419	      1.96259803	     28.73410488	      5.07938296	      0.00000000	     56.12940052	     -4.49190145	     39.84050120	    119.97279131	      2.09392022	     27.35838611	     -9.27136048	      0.00000000	    -16.25221928	      4.78564102	      1.83921870	    -30.18199642	      6.36490255	      1.95416987	    -26.70077105	     11.63580757	      1.95416987	    -18.57466141	     11.63580757	      1.60931637	    -15.09181082	      9.75887916	      1.49436520	     -9.28651809	      7.41295793	      1.37941403	   -116.08797706	     54.13612830	     10.22918267	      0.00000000	      0.00000000	     28.54259117	     -6.86455236	     44.54466473	      3.99056225	    -28.36832306	    -42.79417129	     56.41679048	     89.99559364	      0.00000000	      0.00000000	     44.20821829	    -13.16867597	     77.71148322	     36.33517319	     89.99559364	      0.00000000	      0.00000000
      6.26666667	     48.06385971	    -20.17356774	      5.55552724	     -0.45427131	      0.45697571	     -0.47342514	     43.71822246	     -9.89796156	      5.15051746	    112.51631186	      1.96378010	     31.10817934	      4.81869752	      0.00000000	     55.15065150	     -6.82442509	     39.84398907	    119.97211292	      2.09390838	     29.06120448	     -9.07548416	      0.00000000	    -16.32336160	      4.82805593	      2.28511208	    -30.31411483	      6.42131438	      2.42793159	    -26.81765078	     11.73893518	      2.42793159	    -18.65596998	     11.73893518	      1.99947307	    -15.15787358	      9.84537165	      1.85665357	     -9.32716882	      7.47865863	      1.71383406	   -116.59613960	     54.61593426	     12.70910786	      0.00000000	      0.00000000	     28.54924061	     -7.12537345	     44.60239258	      4.67218981	    -28.96171770	    -45.48134749	     56.12861070	     89.99559364	      0.00000000	      0.00000000	     45.92881713	    -12.56401451	     78.54232850	     35.43300025	     89.99559364	      0.00000000	      0.00000000
      6.30000000	     45.64861938	    -20.52323059	      3.72866736	     -0.43879619	      0.46882022	     -0.46499981	     44.25770970	     -7.98089762	      5.58832867	    112.76749522	      1.96816408	     33.26379362	      3.93179214	      0.00000000	     55.39138101	     -9.09719249	     39.83691440	    119.97055342	      2.09388116	     30.74679514	     -7.64056062	      0.00000000	    -16.21438348	      4.75205818	      2.66031223	    -30.11173156	      6.32023738	      2.82658175	    -26.63861062	     11.55415425	      2.82658175	    -18.53141888	     11.55415425	      2.32777320	    -15.05667650	      9.69039704	      2.16150369	     -9.26489872	      7.36093812	      1.99523417	   -115.81771974	     53.75623252	     14.79585853	      0.00000000	      0.00000000	     28.55275097	     -6.86758668	     44.61511706	      5.51304509	    -29.10551880	    -47.21158956	     56.27038312	     89.99559364	      0.00000000	      0.00000000	     47.31278637	    -12.61760396	     79.18455321	     34.27217543	     89.99559364	      0.00000000	      0.00000000
      6.33333333	     42.07808363	    -20.38573821	      2.03558251	     -0.42157181	      0.47982611	     -0.45511791	     45.86731063	     -6.71584942	      5.93374416	    113.18726784	      1.97549050	     35.36823125	      2.92416424	      0.00000000	     56.84718585	    -10.70571228	     39.82654387	    119.96754026	      2.09382857	     32.03726836	     -5.84037340	      0.00000000	    -15.89610255	      4.60505263	      2.87231697	    -29.52065205	      6.12472000	      3.05183678	    -26.11570688	     11.19672497	      3.05183678	    -18.16765560	     11.19672497	      2.51327735	    -14.76112083	      9.39062332	      2.33375754	     -9.08303300	      7.13322652	      2.15423772	   -113.54427090	     52.09327637	     15.97496527	      0.00000000	      0.00000000	     28.55431897	     -6.21206286	     44.59622827	      6.57706382	    -28.83828769	    -48.06416136	     56.77201150	     89.99559364	      0.00000000	      0.00000000	     48.13090083	    -13.25851568	     78.97238638	     32.74290085	     89.99559364	      0.00000000	      0.00000000
      6.36666667	     37.33506555	    -19.92753897	      0.23351669	     -0.40291842	      0.48993222	     -0.44416917	     48.60676415	     -5.72027792	      6.26368798	    113.61049966	      1.98287728	     37.31111082	      1.83022093	      0.00000000	     59.52524945	    -11.98759009	     39.80688920	    119.96238215	      2.09373855	     33.03269884	     -3.71222952	      0.00000000	    -15.37215180	      4.37868864	      2.95426225	    -28.54762311	      5.82365589	      3.13890365	    -25.25490820	     10.64634356	      3.13890365	    -17.56883229	     10.64634356	      2.58497947	    -14.27458016	      8.92902188	      2.40033808	     -8.78364754	      6.78258871	      2.21569669	   -109.80174311	     49.53260166	     16.43072038	      0.00000000	      0.00000000	     28.55332538	     -5.29154130	     44.53652035	      7.77509687	    -28.28036207	    -48.16929653	     57.46915713	     89.99559364	      0.00000000	      0.00000000	     48.31582611	    -14.32607843	     77.95654385	     30.80872384	     89.99559364	      0.00000000	      0.00000000
